<?xml version="1.0" encoding="UTF-8" standalone="no"?><!DOCTYPE svg PUBLIC "-//W3C//DTD SVG 1.1//EN" "http://www.w3.org/Graphics/SVG/1.1/DTD/svg11.dtd"><svg width="100%" height="100%" viewBox="0 0 765 765" version="1.1" xmlns="http://www.w3.org/2000/svg" xmlns:xlink="http://www.w3.org/1999/xlink" xml:space="preserve" xmlns:serif="http://www.serif.com/" style="fill-rule:evenodd;clip-rule:evenodd;stroke-linecap:round;stroke-linejoin:round;stroke-miterlimit:1.5;"><g id="Layer2"><path d="M56.947,565.163l-31.545,-64.193l-12.393,-64.249l-1.708,-63.887l34.502,-23.277l18.199,-27.291l83.011,-42.586l67.081,-26.335l13.809,-24.159l48.464,-17.342l44.697,-57.321l-16.065,100.418l44.412,6.666l8.639,38.769l26.742,21.561l-9.745,45.841l38.64,71.462l-23.367,121.887l68.733,80.031l-30.674,83.179l26.15,29.26c-0,-0 -47.311,3.305 -92.232,1.83c-31.745,-1.042 -62.481,-5.512 -85.313,-13.156c-20.992,-7.027 -54.34,-17.507 -81.615,-34.85c-22.73,-14.453 -64.527,-44.623 -93.492,-81.098c-30.353,-38.223 -44.93,-61.16 -44.93,-61.16Z" style="fill:#808080;stroke:#000;stroke-opacity:0;stroke-width:0.3px;"/><path d="M322.397,157.801l37.823,52.357l55.802,52.572l13.977,31.201l27.113,31.097l-2.247,90.721l44.402,65.252l-10.125,59.033l32.191,22.511l1.645,22.149l29.016,50.065l2.146,43.281l20.138,29.282c-0,0 -21.026,12.982 -32.296,18.019c-17.076,7.633 -22.054,10.443 -44.386,17.633c-14.353,4.622 -47.107,10.937 -47.107,10.937l-22.228,-27.927l29.63,-89.397l-69.538,-75.306l26.271,-123.216l-40.729,-68.309l9.012,-45.397l-24.277,-25.016l-10.288,-37.621l-44.31,-6.544l18.365,-97.377Z" style="fill:#505050;stroke:#000;stroke-opacity:0;stroke-width:0.3px;"/><path d="M514.434,183.467l-48.139,48.642l-50.273,30.621l13.977,31.201l27.9,30.102l-3.034,91.716l43.716,66.045l-9.439,58.24l30.953,22.268l2.883,22.392l26.953,48.937l2.291,43.291l22.356,31.662c0,0 39.757,-24.937 48.531,-33.62c25.59,-25.322 46.074,-44.764 60.72,-63.09c17.021,-21.296 28.45,-48.11 28.45,-48.11l-10.015,-60.576l-29.955,-0.79l-10.549,-55.251l-45.793,-21.166l-5.3,-61.31l-46.774,-33.29l-25.94,-97.724l-16.887,-20.342l-6.632,-29.848Z" style="fill:#6c6c6c;stroke:#000;stroke-opacity:0;stroke-width:0.3px;"/><path d="M514.434,183.467l21.654,21.705l35.075,36.668l6.97,24.45l44.03,29.077l17.025,23.116l21.294,-11.859l56.46,32.893l40.868,12.332c0,-0 2.485,40.843 0.696,53.058c-4.668,31.879 -8.57,65.581 -19.703,101.755c-8.842,28.728 -30.837,66.22 -27.019,58.946l-7.188,-61.586l-31.961,-2.748l-8.169,-51.295l-48.499,-23.998l-2.288,-62.662l-64.228,-40.929l-11.498,-88.733l-16.887,-20.342l-6.632,-29.848Z" style="fill:#4a4a4a;stroke:#000;stroke-opacity:0;stroke-width:0.3px;"/><path d="M569.958,241.3l31.185,-9.79l54.323,-48.206l23.351,-32.238l29.572,41.416l-3.48,32.3l1.247,30.673l-23.095,19.13l2.754,24.624l-15.81,11.23l-12.327,-4.399l-17.259,12.612l-23.471,-29.235l-38.133,-23.439l-8.857,-24.678Z" style="fill:#6c6c6c;stroke:#000;stroke-opacity:0;stroke-width:0.3px;"/><path d="M758.073,352.287l-4.096,-43.41l-7.922,-34.067l-18.687,-49.127l-20.908,-36.417l-1.551,35.516l1.156,30.756l-23.004,19.047l1.751,24.483l-14.807,11.371l16.886,12.163l29.704,15.735l41.478,13.95Z" style="fill:#353535;stroke:#000;stroke-opacity:0;stroke-width:0.3px;"/><circle cx="382.733" cy="381.044" r="374.844" style="fill:#505050;fill-opacity:0;stroke:#000;stroke-width:10px;"/><path d="M318.714,161.928l37.407,50.912c0.263,0.359 0.566,0.687 0.902,0.979c-0,-0 35.426,30.743 49.595,44.966c1.986,1.994 3.926,4.227 4.473,4.865c0.883,2.211 3.046,3.774 5.571,3.774c3.311,0 6,-2.688 6,-6c-0,-0.826 -0.167,-2.153 -1.103,-3.727c-0.806,-1.356 -3.081,-4.01 -6.44,-7.382c-13.349,-13.399 -45.318,-41.284 -49.723,-45.118c0.001,0.001 -39.964,-54.392 -39.964,-54.392c-0.348,-0.474 -0.765,-0.894 -1.235,-1.247l-3,-2.25c-1.36,-1.02 -3.089,-1.416 -4.758,-1.088c-1.668,0.328 -3.119,1.349 -3.991,2.808l-34.637,57.904c0,-0 -50.201,19.727 -50.201,19.727c-1.272,0.5 -2.336,1.42 -3.015,2.608l-13.111,22.945c-0,0 -62.422,22.501 -62.422,22.501c-0.221,0.08 -0.438,0.173 -0.648,0.278l-82.5,41.25c-0.877,0.438 -1.633,1.085 -2.202,1.883l-19.814,27.782c-4.178,2.207 -17.478,9.408 -27.413,16.716c-5.881,4.327 -10.56,8.865 -12.426,12.496c-1.514,2.945 -0.352,6.565 2.593,8.079c2.945,1.514 6.565,0.353 8.079,-2.592c1.288,-2.505 4.808,-5.332 8.865,-8.317c11.252,-8.277 27.092,-16.392 27.092,-16.392c0.854,-0.437 1.59,-1.074 2.147,-1.854l19.78,-27.735c0,-0 80.849,-40.425 80.849,-40.425c-0,0 64.167,-23.13 64.167,-23.13c1.342,-0.483 2.468,-1.429 3.175,-2.668l13.16,-23.029c-0,0 50.138,-19.703 50.138,-19.703c1.235,-0.485 2.274,-1.366 2.955,-2.504l31.655,-52.92Z"/><path d="M423.121,266.337l41.669,-26.65c0.266,-0.167 0.519,-0.355 0.755,-0.561l49.27,-43.059c0.631,-0.552 1.14,-1.23 1.494,-1.992l0.964,-2.076c-0,-0 50.171,54.185 50.171,54.185c1.651,1.783 4.214,2.394 6.492,1.548l26.25,-9.75c0.676,-0.251 1.301,-0.621 1.845,-1.094l57,-49.5c0.404,-0.351 0.76,-0.755 1.057,-1.2c0,-0 12.53,-18.956 19.045,-25.831c3.295,-0.019 5.964,-2.7 5.964,-5.999c-0,-4.529 -2.615,-6.136 -4.755,-6.76c-1.462,-0.427 -4.517,-0.444 -7.695,2.34c-5.77,5.055 -19.398,24.957 -22.079,28.906c0.001,-0.001 -55.582,48.269 -55.582,48.269c-0,-0 -21.464,7.972 -21.464,7.972c-11.259,-12.159 -53.523,-57.804 -53.523,-57.804c-1.359,-1.467 -3.36,-2.161 -5.336,-1.85c-1.975,0.311 -3.666,1.586 -4.509,3.401l-4.194,9.037c-0,0 -47.957,41.911 -47.957,41.911c-4.125,2.597 -38.788,24.431 -42.766,27.39c-2.211,1.645 -2.556,3.446 -2.632,3.778c-0.499,2.155 0.136,3.788 1.106,5.039c0.305,0.393 3.052,3.876 7.73,1.576c0.646,-0.317 1.21,-0.736 1.68,-1.226Zm-6.632,-9.698l-0.034,0.015l0.144,-0.057l-0.11,0.042Zm0.326,-0.125l-0.057,0.022l0.141,-0.049l-0.084,0.027Zm0.312,-0.098l-0.026,0.008l0.044,-0.013l-0.018,0.005Z"/><path d="M446.105,749.554c-0.019,0.137 -0.029,0.277 -0.029,0.419c-0,1.655 1.344,3 3,3c1.345,-0 2.176,-0.606 2.718,-1.346c0.478,-0.652 0.917,-1.743 0.437,-3.271c-0.442,-1.406 -2.629,-4.575 -5.629,-8.216c-4.894,-5.94 -11.881,-13.515 -14.684,-16.523c0,-0 28.947,-85.794 28.947,-85.794c0.347,-1.028 0.112,-2.163 -0.615,-2.969l-68.044,-75.409c2.843,-14.006 24.864,-122.495 24.864,-122.495c0.143,-0.705 0.028,-1.438 -0.324,-2.065l-38.538,-68.677c-0,0 8.408,-44.968 8.408,-44.968c0.2,-1.067 -0.193,-2.158 -1.026,-2.854l-23.855,-19.914c0,0 -11.179,-39.346 -11.179,-39.346c-0.336,-1.183 -1.359,-2.04 -2.582,-2.165l-40.913,-4.173c0,0 17.229,-87.35 17.229,-87.35c0.143,-0.726 0.013,-1.48 -0.366,-2.116c0,0 -0.631,-1.065 -1.028,-2.329c-0.115,-0.367 -0.192,-0.973 -0.228,-1.305c0.213,-0.033 0.516,-0.067 0.773,-0.059c1.655,0.056 3.044,-1.242 3.1,-2.896c0.056,-1.655 -1.243,-3.044 -2.897,-3.1c-3.229,-0.109 -4.965,1.076 -5.938,2.431c-0.984,1.371 -1.257,3.21 -0.935,5.094c0.267,1.564 0.938,3.143 1.429,4.152c-0,0 -17.662,89.548 -17.662,89.548c-0.164,0.828 0.029,1.687 0.532,2.365c0.502,0.679 1.267,1.114 2.107,1.2l42.163,4.3c0,0 10.877,38.279 10.877,38.279c0.164,0.58 0.5,1.097 0.963,1.483l23.215,19.38c0,0 -8.285,44.311 -8.285,44.311c-0.13,0.691 -0.012,1.406 0.332,2.019l38.526,68.654c0,-0 -24.944,122.885 -24.944,122.885c-0.189,0.933 0.076,1.9 0.713,2.607c0,-0 58.783,65.145 67.882,75.228c-0,0 -28.959,85.829 -28.959,85.829c-0.355,1.05 -0.101,2.21 0.66,3.017c-0,-0 9.505,10.08 15.651,17.54c1.722,2.089 3.392,4.501 4.134,5.599Zm2.593,-2.558l-0.028,0.005l0.059,-0.008l-0.031,0.003Zm0.184,-0.017l-0.047,0.004l0.067,-0.005l-0.02,0.001Z"/><path d="M511.036,188.027l3.1,7.227c0,0 2.292,17.784 2.292,17.784c0.073,0.569 0.308,1.106 0.677,1.546l17.696,21.079c0,0 9.855,87.173 9.855,87.173c0.101,0.898 0.602,1.702 1.363,2.189l62.335,39.92c0,-0 4.752,61.892 4.752,61.892c0.083,1.08 0.741,2.031 1.722,2.489l44.244,20.649c0,-0 11.088,52.997 11.088,52.997c0.287,1.37 1.482,2.359 2.881,2.385l28.514,0.529c1.509,11.033 7.395,54.385 7.395,58.917c0,1.656 1.344,3 3,3c1.656,0 3,-1.344 3,-3c0,-5.266 -7.799,-62.276 -7.799,-62.276c-0.201,-1.465 -1.439,-2.565 -2.916,-2.592l-28.691,-0.532c-0,-0 -10.906,-52.126 -10.906,-52.126c-0.194,-0.925 -0.812,-1.705 -1.668,-2.104l-44.016,-20.543c-0,0 -4.732,-61.635 -4.732,-61.635c-0.072,-0.939 -0.581,-1.789 -1.373,-2.297l-62.392,-39.955c0,-0 -9.795,-86.653 -9.795,-86.653c-0.066,-0.586 -0.304,-1.14 -0.683,-1.591l-17.713,-21.1c0,0 -2.233,-17.326 -2.233,-17.326c-0.034,-0.268 -0.105,-0.53 -0.209,-0.779c-0,-0 -3.43,-8.084 -3.781,-8.662c-0.756,-1.243 -1.782,-1.374 -2.054,-1.423c-1.356,-0.245 -2.441,0.194 -3.164,1.507c-0.078,0.142 -0.675,0.983 -0.201,2.483c0.097,0.304 0.237,0.581 0.412,0.828Zm5.42,-1.316c0.063,-0.344 0.059,-0.785 -0.111,-1.321c0.14,0.441 0.172,0.891 0.111,1.321Z"/><path d="M565.964,244.538c0.31,0.458 1.379,2.067 2.05,3.423c3.197,6.458 6.804,17.172 6.804,17.172c0.21,0.62 0.616,1.155 1.158,1.523l45.424,30.836c-0,0 14.522,22.79 14.522,22.79c0.86,1.349 2.627,1.787 4.017,0.994l19.663,-11.217c-0,-0 54.983,31.164 54.983,31.164c0.268,0.152 0.559,0.262 0.861,0.326c0,-0 18.899,3.967 30.237,8.19c2.175,0.81 4.056,1.619 5.42,2.419c0.426,0.25 0.93,0.646 1.163,0.834c0.321,1.31 1.504,2.283 2.912,2.283c1.656,0 3,-1.344 3,-3c0,-0.907 -0.292,-1.88 -1.028,-2.836c-0.808,-1.049 -2.432,-2.249 -4.723,-3.367c-9.407,-4.593 -31.797,-9.541 -35.285,-10.296c0.002,0 -56.066,-31.778 -56.066,-31.778c-0.92,-0.522 -2.047,-0.52 -2.966,0.004l-18.663,10.647c-0,-0 -13.32,-20.904 -13.32,-20.904c-0.22,-0.344 -0.507,-0.64 -0.845,-0.869l-45.111,-30.624c-1.173,-3.365 -5.217,-14.671 -8.266,-19.695c-0.877,-1.446 -1.762,-2.465 -2.477,-2.986c-0.8,-0.585 -1.589,-0.803 -2.278,-0.824c-1.655,-0.049 -3.039,1.255 -3.088,2.91c-0.038,1.3 0.758,2.432 1.902,2.881Z"/><path d="M673.812,311.567c0.228,-0.25 1.151,-1.24 1.966,-1.874c4.015,-3.123 10.712,-6.46 10.712,-6.46c1.129,-0.564 1.784,-1.776 1.638,-3.03l-2.862,-24.57c-0,0 21.88,-18.035 21.88,-18.035c0.695,-0.573 1.096,-1.428 1.092,-2.33l-0.327,-65.911c-0.009,-1.656 -1.36,-2.993 -3.015,-2.985c-1.656,0.008 -2.994,1.359 -2.985,3.015l0.32,64.487c-0,0 -22.042,18.169 -22.042,18.169c-0.786,0.648 -1.19,1.65 -1.072,2.662l2.813,24.142c-2.466,1.32 -6.833,3.774 -9.836,6.11c-1.625,1.264 -2.874,2.55 -3.508,3.63c-0.525,0.895 -0.739,1.757 -0.739,2.521c-0,1.655 1.344,3 3,3c1.5,-0 2.744,-1.103 2.965,-2.541Z"/><path d="M410.048,260.953l14.915,28.118c0.088,0.165 0.191,0.323 0.308,0.469l27.794,34.711c0,-0 -1.218,91.817 -1.218,91.817c-0.008,0.619 0.175,1.226 0.526,1.736l42.264,61.639c-0,-0 -9.007,59.969 -9.007,59.969c-0.171,1.136 0.323,2.27 1.27,2.92l30.949,21.22c0,-0 2.262,23.098 2.262,23.098c0.042,0.429 0.176,0.843 0.392,1.215l25.282,43.487c0,0 2.377,43.504 2.377,43.504c0.03,0.541 0.205,1.064 0.508,1.513l21.365,31.692c0.925,1.373 2.791,1.736 4.164,0.811c1.373,-0.926 1.736,-2.792 0.811,-4.165l-20.902,-31.005c0,0 -2.371,-43.397 -2.371,-43.397c-0.026,-0.474 -0.164,-0.935 -0.402,-1.345l-25.316,-43.545c-0,-0 -2.334,-23.839 -2.334,-23.839c-0.087,-0.882 -0.559,-1.681 -1.29,-2.182l-30.552,-20.948c-0,-0 8.903,-59.28 8.903,-59.28c0.113,-0.751 -0.063,-1.516 -0.493,-2.142l-42.394,-61.828c0,-0 1.22,-91.941 1.22,-91.941c0.009,-0.695 -0.223,-1.372 -0.658,-1.915l-28.29,-35.33c0,0 -14.782,-27.868 -14.782,-27.868c-0.776,-1.463 -2.593,-2.021 -4.056,-1.245c-1.463,0.776 -2.021,2.593 -1.245,4.056Z"/><g id="Layer4"></g></g></svg>